<svg xmlns="http://www.w3.org/2000/svg" width="377" height="623" viewBox="0 0 377 623" fill="none" role="img" aria-labelledby="title desc">
  <title id="title">Penguin Studio logo</title>
  <desc id="desc">Vectorized Penguin Studio penguin mark.</desc>
  <defs>
    <linearGradient id="silver" x1="57" y1="36" x2="319" y2="594" gradientUnits="userSpaceOnUse">
      <stop offset="0" stop-color="#F6F7F8"/>
      <stop offset="0.36" stop-color="#B8BABD"/>
      <stop offset="0.72" stop-color="#E7E8EA"/>
      <stop offset="1" stop-color="#9C9EA3"/>
    </linearGradient>
    <linearGradient id="dark" x1="179" y1="105" x2="219" y2="598" gradientUnits="userSpaceOnUse">
      <stop offset="0" stop-color="#071223"/>
      <stop offset="0.55" stop-color="#020B18"/>
      <stop offset="1" stop-color="#071225"/>
    </linearGradient>
    <filter id="softShadow" x="-6%" y="-4%" width="112%" height="112%" color-interpolation-filters="sRGB">
      <feDropShadow dx="0" dy="10" stdDeviation="10" flood-color="#000000" flood-opacity="0.18"/>
    </filter>
  </defs>
  <g filter="url(#softShadow)">
    <path d="M 376.0 0.0 L 199.0 0.0 L 198.0 2.0 L 178.0 5.0 L 161.0 12.0 L 146.0 25.0 L 134.0 44.0 L 104.0 118.0 L 100.0 131.0 L 92.0 150.0 L 89.0 151.0 L 90.0 154.0 L 48.0 253.0 L 3.0 366.0 L 0.0 369.0 L 0.0 385.0 L 2.0 386.0 L 99.0 613.0 L 101.0 616.0 L 106.0 618.0 L 108.0 622.0 L 130.0 622.0 L 131.0 617.0 L 260.0 616.0 L 256.0 609.0 L 252.0 608.0 L 240.0 596.0 L 237.0 596.0 L 232.0 592.0 L 232.0 590.0 L 234.0 589.0 L 234.0 584.0 L 241.0 577.0 L 241.0 574.0 L 247.0 565.0 L 248.0 559.0 L 253.0 554.0 L 257.0 544.0 L 261.0 539.0 L 261.0 536.0 L 267.0 527.0 L 267.0 522.0 L 271.0 514.0 L 275.0 511.0 L 276.0 505.0 L 331.0 401.0 L 341.0 381.0 L 342.0 371.0 L 329.0 335.0 L 266.0 183.0 L 267.0 179.0 L 265.0 178.0 L 264.0 171.0 L 260.0 168.0 L 261.0 163.0 L 259.0 163.0 L 257.0 159.0 L 256.0 129.0 L 259.0 126.0 L 261.0 112.0 L 263.0 111.0 L 263.0 107.0 L 266.0 105.0 L 271.0 90.0 L 282.0 76.0 L 284.0 71.0 L 289.0 67.0 L 289.0 64.0 L 292.0 63.0 L 292.0 61.0 L 295.0 58.0 L 332.0 33.0 L 336.0 33.0 L 338.0 29.0 L 343.0 28.0 L 345.0 25.0 L 347.0 25.0 L 348.0 22.0 L 360.0 14.0 L 370.0 10.0 L 372.0 6.0 L 376.0 5.0 Z" fill="url(#silver)"/>
    <path d="M 281.0 69.0 L 228.0 104.0 L 150.0 145.0 L 140.0 154.0 L 131.0 170.0 L 129.0 179.0 L 131.0 194.0 L 201.0 370.0 L 203.0 384.0 L 110.0 611.0 L 109.0 616.0 L 111.0 617.0 L 130.0 616.0 L 200.0 571.0 L 207.0 572.0 L 230.0 589.0 L 264.0 527.0 L 270.0 445.0 L 271.0 360.0 L 267.0 336.0 L 229.0 236.0 L 229.0 228.0 L 250.0 159.0 L 254.0 156.0 L 254.0 132.0 L 257.0 117.0 L 267.0 93.0 L 281.0 72.0 Z" fill="url(#dark)"/>
  </g>
</svg>